<svg width="10" height="7" viewBox="0 0 10 7" xmlns="http://www.w3.org/2000/svg">
  <path
    d="M4.47495 5.76064L0.849951 1.90426C0.799951 1.85106 0.762451 1.79344 0.737451 1.73138C0.712451 1.66933 0.699951 1.60284 0.699951 1.53191C0.699951 1.39007 0.745785 1.26596 0.837451 1.15957C0.929118 1.05319 1.04995 1 1.19995 1H8.79995C8.94995 1 9.07079 1.05319 9.16245 1.15957C9.25412 1.26596 9.29995 1.39007 9.29995 1.53191C9.29995 1.56738 9.24995 1.69149 9.14995 1.90426L5.52495 5.76064C5.44162 5.84929 5.35828 5.91135 5.27495 5.94681C5.19162 5.98227 5.09995 6 4.99995 6C4.89995 6 4.80828 5.98227 4.72495 5.94681C4.64162 5.91135 4.55828 5.84929 4.47495 5.76064Z"
    fill="black" />
</svg>