<svg width="55" height="79" viewBox="0 0 55 79" fill="none" xmlns="http://www.w3.org/2000/svg">
<path d="M25.8009 0.069912C23.2062 0.471893 21.2385 1.46811 19.4448 3.26829C15.9447 6.76379 15.37 11.605 17.895 16.1142C19.3752 18.7533 26.5497 28.9602 26.9328 28.9602C26.985 28.9602 27.7861 27.8416 28.709 26.4609C37.0154 14.2791 36.7542 14.6811 37.3114 12.7935C38.5304 8.65135 36.2492 3.58289 32.244 1.48559C30.1021 0.367029 27.49 -0.209728 25.8009 0.069912ZM29.4055 6.09964C30.2762 6.62397 31.2862 7.67262 31.739 8.54649C31.9131 8.87856 32.0698 9.68253 32.1221 10.4341C32.1917 11.5351 32.1221 11.9196 31.8086 12.6712C30.9554 14.6461 28.7612 15.9569 26.5497 15.7996C23.0495 15.5724 20.7857 12.3915 21.7957 9.1582C22.144 8.03964 22.8231 7.14829 23.8505 6.43172C24.965 5.68018 25.4874 5.54036 27.1243 5.59279C28.3607 5.64523 28.7438 5.71514 29.4055 6.09964Z" fill="#F5830A"/>
<path d="M15.4898 16.6147C15.4898 16.5099 14.8816 15.0134 14.5334 14.3143L12.8697 12.4453L2.22557 8.05404V42.7905L16.5266 48.8203V18.9338L15.4898 16.6147Z" fill="#70C6BE" stroke="#70C6BE"/>
<path d="M15.5267 16.3109L27.0198 31.3852L38.1864 16.3109L41.2556 24.6345L42.627 30.2055L37.7293 34.9244L27.4117 35.9075L20.7509 39.971L17.747 46.6561L16.5716 39.7088L15.5267 16.3109Z" fill="#70C6BE" stroke="#70C6BE"/>
<path d="M36.8804 35.3176L25.3873 36.825L18.5959 42.4615L17.6817 48.95L20.555 49.4744L27.4117 47.0494L36.4233 50.0642L53.467 42.4615L52.6181 7.06964L40.9944 11.1987L39.0354 17.6217L42.1698 26.273L40.9944 32.8926L36.8804 35.3176Z" fill="#70C6BE" stroke="#70C6BE"/>
<path d="M49.3095 6.3618C47.7771 6.97351 44.9561 8.10955 43.0405 8.86108L39.5578 10.2243L39.1921 12.0245C38.9831 13.0207 38.6 14.4539 38.3562 15.1879C37.4855 17.7396 37.7119 18.8407 39.9931 23.7169C41.1947 26.2512 41.2817 26.5133 41.3514 27.8416C41.4211 28.9951 41.3688 29.3971 41.0728 30.0613C40.62 31.075 39.5404 32.2634 38.2866 33.1023L37.294 33.749L34.0898 33.9762C32.3311 34.0986 30.224 34.3258 29.4055 34.4656C26.4278 35.0249 23.6764 36.1259 21.8131 37.5241C20.7161 38.3281 18.9921 40.1632 18.3129 41.2469C18.0169 41.7013 17.7557 42.0683 17.7035 42.0683C17.6512 42.0683 17.6338 37.0697 17.6686 30.9701C17.7209 18.4737 17.8602 19.9418 16.3104 17.3377L15.5964 16.1142L15.7009 32.0013C15.8228 47.4688 15.8228 47.8883 15.5093 47.766C15.3178 47.696 12.3052 46.4202 8.78761 44.8996L2.37933 42.1557V25.3598V8.54649L7.53381 10.7137C10.3548 11.9022 13.1062 13.0906 13.6286 13.3877L14.7247 14.3143V13.1641C14.7247 11.9582 14.2904 10.6088 13.8724 10.6088C13.7331 10.6088 9.51898 8.84361 3.38933 6.20451C1.14295 5.24324 0.516052 5.19081 0.167776 5.88991C-0.00636166 6.23946 -0.0411893 10.0146 0.0458797 24.416C0.0981211 34.3607 0.167776 42.7499 0.220018 43.047C0.254845 43.3441 0.428983 43.7112 0.603121 43.851C0.881742 44.0957 6.14071 46.4202 10.2155 48.098C11.3126 48.5524 13.1585 49.3214 14.3078 49.7933C17.7905 51.244 17.1811 51.2614 22.2311 49.5836C24.6516 48.7971 26.7935 48.1505 27.0024 48.1505C27.6119 48.1505 29.3011 48.6573 32.5052 49.7759C34.1769 50.3526 35.7093 50.8769 35.9183 50.9294C36.1273 50.9818 39.0702 49.8982 43.145 48.2728C52.0435 44.7423 53.4017 44.1656 53.8197 43.7461C54.1505 43.4141 54.1505 43.1519 54.0461 24.6083L53.9242 5.80252L53.5585 5.48793C52.9664 5.01604 52.2698 5.15586 49.3095 6.3618ZM51.7474 25.1326C51.8171 34.4656 51.8345 42.1382 51.7823 42.1906C51.6952 42.278 49.4662 43.1869 43.1276 45.7386C41.2643 46.4901 39.4359 47.2416 39.0876 47.3814L38.4259 47.6611V41.7537V35.8638L39.9931 34.7452C40.8464 34.1335 41.8216 33.347 42.1524 32.9625C43.7545 31.1798 44.3814 28.4359 43.7371 26.0065C43.5978 25.4822 42.9883 24.0315 42.3614 22.7732C40.4285 18.8932 40.324 17.8445 41.4559 14.2791L42.2221 11.9196L46.8193 10.0495C49.3269 9.03586 51.4514 8.17946 51.5036 8.17946C51.5559 8.16198 51.6778 15.7996 51.7474 25.1326ZM35.988 42.3305C35.988 45.6512 35.9357 48.3602 35.8661 48.3602C35.7964 48.3602 34.7516 48.0456 33.55 47.6786C30.6942 46.7697 27.9776 46.0881 27.2462 46.0881C26.5497 46.0881 23.1888 46.9096 20.7683 47.6436C19.8279 47.9407 19.0269 48.1854 18.9921 48.1854C18.6612 48.1854 19.6538 43.5539 20.2285 42.4178C21.0643 40.7575 23.3107 38.9223 25.7312 37.9436C27.8209 37.0872 31.8086 36.3532 34.6471 36.3182L35.988 36.3007V42.3305Z" fill="#094052"/>
<path d="M6.21036 61.9052V69.1584H7.70795H9.18812L9.13588 64.4569C9.10105 61.8703 9.10105 59.7555 9.10105 59.773C9.11847 59.7905 9.69312 60.909 10.3897 62.2548C11.0862 63.6005 11.8698 65.0512 12.1485 65.4881C12.6361 66.2921 12.6535 66.2921 13.4545 66.1872C14.2729 66.0998 14.2729 66.0998 15.074 64.6667C15.5093 63.8802 16.2581 62.4995 16.7283 61.6081C17.5642 60.0177 17.599 60.0002 17.7383 60.507C17.8254 60.7867 17.8776 61.4159 17.8428 61.9052C17.8254 62.3771 17.8254 64.2123 17.8428 65.96L17.8776 69.1584H19.4448H21.0121V61.9052V54.6521H19.2185H17.4423L15.5267 58.1825C14.4645 60.1051 13.5416 61.6955 13.4371 61.6955C13.2804 61.678 12.2181 59.9303 10.3548 56.5222L9.32743 54.6521H7.76019H6.21036V61.9052Z" fill="#094052"/>
<path d="M26.5671 61.5033C25.1566 65.2784 23.955 68.5467 23.8854 68.7564C23.7809 69.1584 23.7983 69.1584 25.4004 69.1584H27.0373L27.6642 67.4456L28.291 65.7503L30.6419 65.6978L32.9754 65.6454L33.6023 67.3582L34.2117 69.071L35.8835 69.1234C36.8064 69.1409 37.5552 69.106 37.5552 69.0535C37.5552 68.9836 37.0328 67.533 36.4059 65.8551C34.6993 61.2586 32.5226 55.491 32.331 55.0366C32.1743 54.687 32.0524 54.6521 30.6419 54.6521H29.1095L26.5671 61.5033ZM31.4429 60.4546C31.8435 61.6431 32.1569 62.6568 32.1569 62.7267C32.1569 62.7966 31.4429 62.8665 30.5897 62.9014C29.719 62.9364 29.0224 62.9189 29.0224 62.8665C29.0224 62.6218 30.52 58.3224 30.6071 58.3224C30.6593 58.3224 31.0424 59.2836 31.4429 60.4546Z" fill="#094052"/>
<path d="M39.9931 61.8878V69.1584H41.6474H43.3017V66.6242V64.0899H44.7471C46.7845 64.0899 47.899 63.7229 48.909 62.7092C51.1728 60.4371 50.4066 56.2775 47.5159 55.1589C46.6626 54.8443 46.0531 54.7744 43.2669 54.687L39.9931 54.5996V61.8878ZM46.2621 57.5883C46.5929 57.7456 46.9586 58.0777 47.0805 58.3224C47.6378 59.4409 47.0979 61.0838 46.0531 61.4508C45.7571 61.5557 45.0083 61.6431 44.4162 61.6431H43.3017V59.4584V57.2737H44.4859C45.2521 57.2737 45.8616 57.3786 46.2621 57.5883Z" fill="#094052"/>
<path d="M7.5164 71.7975C6.57605 72.147 6.21036 72.6364 6.21036 73.4928C6.21036 74.122 6.29743 74.3492 6.75019 74.7687C7.04622 75.0483 7.37709 75.2755 7.49898 75.2755C7.91691 75.2755 9.51898 76.1494 9.51898 76.3766C9.51898 77.1281 8.14329 77.4252 6.95915 76.9359C6.62829 76.796 6.31484 76.6737 6.28002 76.6737C6.24519 76.6737 6.21036 76.9708 6.21036 77.3378C6.21036 77.9496 6.2626 78.0195 6.85467 78.2292C7.67312 78.5263 9.22295 78.4914 9.86726 78.1593C10.5638 77.7923 10.9817 76.9533 10.8424 76.1843C10.7205 75.3629 10.3374 74.9959 9.15329 74.5589C8.17812 74.1919 7.42933 73.6851 7.42933 73.353C7.42933 72.8461 9.11847 72.6539 9.86726 73.0908C10.4942 73.4578 10.5638 73.4229 10.5638 72.7762C10.5638 72.3043 10.4593 72.147 10.0936 71.9723C9.4145 71.6577 8.12588 71.5878 7.5164 71.7975Z" fill="#094052"/>
<path d="M39.9757 71.8674C38.7045 72.2694 37.7293 73.6501 37.7293 75.0133C37.7293 76.4814 38.8438 77.9321 40.2717 78.3515C41.125 78.5962 41.2992 78.5962 42.1524 78.3515C43.0057 78.1069 43.0928 78.0195 43.1798 77.5126C43.2843 76.7261 43.1973 76.6387 42.6052 76.9359C41.3862 77.565 40.0105 77.0757 39.5404 75.8523C39.0179 74.5065 39.5404 73.3705 40.829 73.0034C41.4036 72.8461 41.8216 72.9335 43.0057 73.4404C43.2495 73.5452 43.3017 73.4753 43.3017 72.9335C43.3017 72.4267 43.2147 72.2694 42.7793 72.0422C42.0131 71.6402 40.8812 71.5703 39.9757 71.8674Z" fill="#094052"/>
<path d="M13.0017 75.1007V78.4214H15.1785H17.3552V77.7049V77.0058L16.0143 77.0582L14.6561 77.1106L14.6038 76.2717C14.5516 75.3629 14.5167 75.3804 16.0143 75.4503C16.8154 75.4852 16.8328 75.4678 16.8328 74.9434V74.4016H15.7009H14.569V73.7025V73.0034H15.9621H17.3552V72.3917V71.78H15.1785H13.0017V75.1007Z" fill="#094052"/>
<path d="M19.2707 75.1007V78.4214H19.9673H20.6638V77.2854V76.1494H21.2733C21.8305 76.1494 21.9176 76.2368 22.5271 77.2854C23.1714 78.404 23.1888 78.4214 23.9202 78.4214C24.3381 78.4214 24.669 78.3865 24.669 78.3341C24.669 78.2816 24.3207 77.6524 23.8854 76.9533L23.1017 75.66L23.7112 75.0483C24.3904 74.3667 24.4948 73.6851 24.0595 72.8461C23.6938 72.1121 22.7012 71.78 20.8379 71.78H19.2707V75.1007ZM22.4052 73.2306C22.9973 73.5278 23.0321 73.9647 22.5097 74.489C22.1788 74.8036 21.8828 74.926 21.3604 74.926H20.6638V73.9647V73.0034H21.3255C21.6738 73.0034 22.1614 73.1083 22.4052 73.2306Z" fill="#094052"/>
<path d="M27.2985 75.0483C27.9602 76.8485 28.5 78.3515 28.5 78.3865C28.5 78.4215 28.8657 78.4215 29.3185 78.3865L30.1195 78.3341L30.7812 76.4989C31.1295 75.4852 31.6693 74.0171 31.948 73.2132L32.4878 71.78H31.7564H31.025L30.224 73.9996C29.7886 75.2406 29.3707 76.2193 29.2836 76.2018C29.1966 76.1843 28.7786 75.1881 28.3607 73.9822L27.5771 71.78H26.8457H26.0969L27.2985 75.0483Z" fill="#094052"/>
<path d="M34.2466 75.1007V78.4214H34.9431H35.6571L35.6397 75.1007L35.6048 71.78H34.9257H34.2466V75.1007Z" fill="#094052"/>
<path d="M45.5655 75.1007V78.4214H47.7597H49.9364L49.8842 77.7573L49.8319 77.1106L48.4911 77.1281L47.1328 77.1456V76.2542V75.3629L48.2298 75.4153L49.3269 75.4852L49.3617 74.9434L49.3966 74.4016H48.2647H47.1328V73.7025V73.0034H48.4388H49.7448V72.3917V71.78H47.6552H45.5655V75.1007Z" fill="#094052"/>
</svg>
